<svg 
          width="20" 
          height="18" fill="none" 
          xmlns="http://www.w3.org/2000/svg">
          <path d="M 1 1 L 1 6 L 3 6 L 3 2 L 7 2 L 7 0 L 2 0 C 1.7347835004329681 4.440892098500626e-16 1.480429545044899 0.10535679757595062 1.2928931713104248 0.2928931713104248 C 1.1053567975759506 0.480429545044899 1.0000000000000009 0.7347835004329681 1 1 L 1 1 Z M 19 6 L 19 1 C 19 0.7347835004329681 18.894643917679787 0.480429545044899 18.707107543945312 0.2928931713104248 C 18.51957117021084 0.10535679757595062 18.265216499567032 8.881784197001252e-16 18 0 L 13 0 L 13 2 L 17 2 L 17 6 L 19 6 Z M 17 16 L 13 16 L 13 18 L 18 18 C 18.265216499567032 18 18.51957117021084 17.894643917679787 18.707107543945312 17.707107543945312 C 18.894643917679787 17.51957117021084 19 17.265216499567032 19 17 L 19 12 L 17 12 L 17 16 Z M 7 18 L 7 16 L 3 16 L 3 12 L 1 12 L 1 17 C 1.0000000000000004 17.265216499567032 1.1053567975759506 17.51957117021084 1.2928931713104248 17.707107543945312 C 1.480429545044899 17.894643917679787 1.7347835004329681 18 2 18 L 7 18 Z M 0 8 L 20 8 L 20 10 L 0 10 L 0 8 Z" fill="rgb(14.000000115484,24.000000469386578,41.00000135600567)"/>
        </svg>